# xmcd
#
# Track frame offsets: 
#        150
#        16407
#        30144
#        47545
#        63037
#        79645
#        94145
#        108582
#        120875
#        130860
#        153617
#        162307
#
# Disc length: 2332 seconds
#
# Revision: 0
# Processed by: cddbd v1.5.2PL0 Copyright (c) Steve Scherf et al.
# Submitted via: ExactAudioCopy v1.0b1
#
DISCID=83091a0c
DTITLE=Matuška Waldemar - Suvenýr
DYEAR=1980
DGENRE=Country
TTITLE0=Jó, třešně zrály
TTITLE1=Tisíc mil
TTITLE2=Růže z Texasu
TTITLE3=Pojď se mnou, lásko má
TTITLE4=Slavíci z Madridu
TTITLE5=Sbohem, lásko
TTITLE6=Jezabel
TTITLE7=Píseň pro Kristýnku
TTITLE8=Holky já mám všechny rád
TTITLE9=Ráno
TTITLE10=Tuhle rundu platím já
TTITLE11=Jen se přiznej, že ti scházím
EXTD=
EXTT0=
EXTT1=
EXTT2=
EXTT3=
EXTT4=
EXTT5=
EXTT6=
EXTT7=
EXTT8=
EXTT9=
EXTT10=
EXTT11=
PLAYORDER=
